<?xml version="1.0" encoding="UTF-8"?>
<svg width="128px" height="128px" viewBox="0 0 128 128" version="1.1" xmlns="http://www.w3.org/2000/svg" xmlns:xlink="http://www.w3.org/1999/xlink">
    <!-- Generator: Sketch 58 (84663) - https://sketch.com -->
    <title>nav-icon</title>
    <desc>Created with Sketch.</desc>
    <defs>
        <circle id="path-1" cx="64" cy="64" r="64"></circle>
        <filter x="-5.1%" y="-4.3%" width="110.2%" height="110.2%" filterUnits="objectBoundingBox" id="filter-2">
            <feOffset dx="0" dy="1" in="SourceAlpha" result="shadowOffsetOuter1"></feOffset>
            <feGaussianBlur stdDeviation="2" in="shadowOffsetOuter1" result="shadowBlurOuter1"></feGaussianBlur>
            <feColorMatrix values="0 0 0 0 0.456210371   0 0 0 0 0.456210371   0 0 0 0 0.456210371  0 0 0 0.5 0" type="matrix" in="shadowBlurOuter1"></feColorMatrix>
        </filter>
    </defs>
    <g id="nav-icon" stroke="none" stroke-width="1" fill="none" fill-rule="evenodd">
        <g id="g">
            <g id="橢圓形" fill-rule="nonzero">
                <use fill="black" fill-opacity="1" filter="url(#filter-2)" xlink:href="#path-1"></use>
                <use fill="#F6EEBB" xlink:href="#path-1"></use>
            </g>
            <g id="coronavirus" transform="translate(15.673469, 9.142857)" fill="#CC0202" fill-rule="nonzero">
                <path d="M48.5097119,0.141020933 C51.6237946,0.141020933 54.005152,2.51205288 54.005152,5.61263313 C54.005152,7.98366508 52.5397013,9.98992288 50.3415253,10.7194712 L50.3415253,10.7194712 L50.3415253,16.5558575 C54.554696,16.7382446 58.5846853,17.6501799 62.4314933,19.1092765 L62.4314933,19.1092765 L65.3623947,12.3609548 L68.6596587,13.8200514 L65.7287573,20.5683731 C67.0110267,21.2979214 68.293296,22.0274697 69.5755654,22.757018 L69.5755654,22.757018 L73.9719174,16.7382446 L76.9028187,18.9268895 L72.5064667,24.9456629 C75.6205494,27.4990819 78.5514507,30.5996621 80.7496267,34.0650165 L80.7496267,34.0650165 L85.8787041,31.1468234 C85.3291601,28.9581785 86.4282481,26.7695336 88.4432428,25.4928241 C91.0077814,24.0337275 94.4882268,24.9456629 95.9536775,27.4990819 C97.4191281,30.0525009 96.5032215,33.5178553 93.9386828,34.9769519 C91.9236881,36.2536614 89.3591494,35.8888873 87.7105174,34.4297907 L87.7105174,34.4297907 L82.5814401,37.3479838 C84.4132534,40.9957253 85.8787041,44.8258538 86.4282481,49.0207565 L86.4282481,49.0207565 L93.7555015,48.2912082 L94.1218641,51.9389497 L86.7946108,52.668498 C86.9777921,53.3980463 86.9777921,54.1275946 86.9777921,54.8571429 C86.9777921,55.5866911 86.7946108,56.3162394 86.7946108,57.0457877 L86.7946108,57.0457877 L94.1218641,57.775336 L93.7555015,61.4230775 L86.4282481,60.6935292 C85.6955228,64.8884319 84.4132534,68.7185604 82.5814401,72.3663019 L82.5814401,72.3663019 L87.7105174,75.284495 C89.3591494,73.8253985 91.9236881,73.4606243 93.9386828,74.7373338 C96.5032215,76.1964304 97.0527655,79.6617848 95.5873148,82.2152038 C94.1218641,84.7686228 90.6414188,85.6805582 88.0768801,84.2214616 C86.0618854,83.1271392 85.1459788,80.7561072 85.5123414,78.5674624 L85.5123414,78.5674624 L80.3832641,75.6492692 C78.1850881,79.1146236 75.437368,82.2152038 72.140104,84.7686228 L72.140104,84.7686228 L76.5364561,90.7873963 L73.6055547,92.9760411 L69.2092027,86.9572677 C67.9269334,87.686816 66.644664,88.4163643 65.3623947,89.1459126 L65.3623947,89.1459126 L68.293296,95.8942343 L64.996032,97.3533309 L62.0651307,90.6050092 C58.2183227,92.0641058 54.1883333,92.9760411 49.9751626,93.1584282 L49.9751626,93.1584282 L49.9751626,98.9948145 C52.1733386,99.7243628 53.6387893,101.730621 53.6387893,104.101653 C53.6387893,107.202233 51.257432,109.573265 48.1433493,109.573265 C45.0292666,109.573265 42.6479093,107.202233 42.6479093,104.101653 C42.6479093,101.730621 44.1133599,99.7243628 46.3115359,98.9948145 L46.3115359,98.9948145 L46.3115359,93.1584282 C42.0983653,92.9760411 38.0683759,92.0641058 34.2215679,90.6050092 L34.2215679,90.6050092 L31.2906665,97.3533309 L27.9934025,95.8942343 L30.9243039,89.1459126 C29.6420345,88.4163643 28.3597652,87.686816 27.0774959,86.9572677 L27.0774959,86.9572677 L22.6811438,92.9760411 L19.7502425,90.7873963 L24.1465945,84.7686228 C21.0325118,82.2152038 18.1016105,79.1146236 15.9034345,75.6492692 L15.9034345,75.6492692 L10.7743571,78.5674624 C11.3239011,80.7561072 10.2248131,82.9447521 8.20981846,84.2214616 C5.64527978,85.6805582 2.16483444,84.7686228 0.699383764,82.2152038 C-0.766066909,79.6617848 0.149839761,76.1964304 2.71437844,74.7373338 C4.72937311,73.4606243 7.29391179,73.8253985 8.9425438,75.284495 L8.9425438,75.284495 L14.0716211,72.3663019 C12.2398078,68.7185604 10.7743571,64.8884319 10.2248131,60.6935292 L10.2248131,60.6935292 L2.89755977,61.4230775 L2.5311971,57.775336 L9.85845047,57.0457877 C9.67526913,56.3162394 9.67526913,55.5866911 9.67526913,54.8571429 C9.67526913,54.1275946 9.85845047,53.3980463 9.85845047,52.668498 L9.85845047,52.668498 L2.5311971,51.9389497 L2.89755977,48.2912082 L10.2248131,49.0207565 C10.9575385,44.8258538 12.2398078,40.9957253 14.0716211,37.3479838 L14.0716211,37.3479838 L8.9425438,34.4297907 C7.29391179,35.8888873 4.72937311,36.2536614 2.71437844,34.9769519 C0.149839761,33.5178553 -0.766066909,30.0525009 0.699383764,27.4990819 C2.16483444,24.9456629 5.64527978,24.0337275 8.39299979,25.4928241 C10.4079945,26.5871465 11.3239011,28.9581785 10.9575385,31.1468234 L10.9575385,31.1468234 L16.2697972,34.0650165 C18.4679732,30.5996621 21.2156932,27.4990819 24.5129572,24.9456629 L24.5129572,24.9456629 L20.1166052,18.9268895 L23.0475065,16.7382446 L27.4438585,22.757018 C28.7261279,22.0274697 30.0083972,21.2979214 31.2906665,20.5683731 L31.2906665,20.5683731 L28.3597652,13.8200514 L31.6570292,12.3609548 L34.5879306,19.1092765 C38.4347386,17.6501799 42.4647279,16.7382446 46.6778986,16.5558575 L46.6778986,16.5558575 L46.6778986,10.7194712 C44.4797226,9.98992288 43.0142719,7.98366508 43.0142719,5.61263313 C43.0142719,2.51205288 45.3956293,0.141020933 48.5097119,0.141020933 Z M50.158344,20.385986 L50.158344,23.8513404 L46.4947173,23.8513404 L46.4947173,20.385986 C42.8310906,20.5683731 39.1674639,21.2979214 35.8701999,22.5746309 L35.8701999,22.5746309 L37.3356506,25.8575982 L34.0383866,27.3166948 L32.5729359,24.0337275 C31.4738479,24.5808887 30.5579412,25.1280499 29.4588532,25.8575982 L29.4588532,25.8575982 L31.6570292,28.7757914 L28.7261279,30.9644363 L26.5279519,28.0462431 C23.5970505,30.234888 21.2156932,32.9706941 19.2006985,36.0712743 L19.2006985,36.0712743 L22.3147812,37.8951451 L20.4829678,40.9957253 L17.3688852,39.1718546 C15.7202532,42.2724348 14.6211652,45.7377892 14.0716211,49.3855307 L14.0716211,49.3855307 L17.5520665,49.7503048 L17.1857038,53.3980463 L13.7052585,53.0332721 C13.5220771,53.5804333 13.5220771,54.3099816 13.5220771,54.8571429 C13.5220771,55.4043041 13.7052585,56.1338524 13.7052585,56.6810136 L13.7052585,56.6810136 L17.0025225,56.4986265 L17.3688852,60.146368 L13.8884398,60.5111421 C14.4379838,64.1588836 15.5370718,67.624238 17.1857038,70.7248182 L17.1857038,70.7248182 L20.2997865,68.9009475 L22.1315998,72.0015277 L19.0175172,73.8253985 C21.0325118,76.9259787 23.5970505,79.4793977 26.3447705,81.8504297 L26.3447705,81.8504297 L28.7261279,78.7498494 L31.6570292,80.9384943 L29.4588532,83.8566875 C30.3747599,84.5862358 31.4738479,85.133397 32.5729359,85.6805582 L32.5729359,85.6805582 L34.0383866,82.3975909 L37.3356506,83.8566875 L35.8701999,87.1396548 C39.1674639,88.4163643 42.8310906,89.1459126 46.4947173,89.3282997 L46.4947173,89.3282997 L46.4947173,85.8629453 L50.158344,85.8629453 L50.158344,89.3282997 C53.8219706,89.1459126 57.4855973,88.4163643 60.7828613,87.1396548 L60.7828613,87.1396548 L59.3174107,83.8566875 L62.797856,82.579978 L64.2633067,85.8629453 C65.3623947,85.3157841 66.2783013,84.7686228 67.3773894,84.0390746 L67.3773894,84.0390746 L65.1792133,81.1208814 L68.1101147,78.9322365 L70.3082907,81.8504297 C73.0560107,79.4793977 75.437368,76.7435916 77.4523627,73.6430114 L77.4523627,73.6430114 L74.33828,71.8191407 L76.1700934,68.7185604 L79.2841761,70.5424311 C80.9328081,67.4418509 82.0318961,63.9764965 82.5814401,60.328755 L82.5814401,60.328755 L79.1009947,59.9639809 L79.4673574,56.3162394 L82.9478027,56.6810136 C83.1309841,56.1338524 83.1309841,55.4043041 83.1309841,54.8571429 C83.1309841,54.3099816 82.9478027,53.5804333 82.9478027,53.0332721 L82.9478027,53.0332721 L79.4673574,53.3980463 L79.1009947,49.7503048 L82.5814401,49.3855307 C82.0318961,45.7377892 80.9328081,42.2724348 79.2841761,39.1718546 L79.2841761,39.1718546 L76.1700934,40.9957253 L74.33828,37.8951451 L77.4523627,36.0712743 C75.437368,32.9706941 72.8728294,30.4172751 70.1251094,28.0462431 L70.1251094,28.0462431 L67.9269334,30.9644363 L64.996032,28.7757914 L67.194208,25.8575982 C66.2783013,25.1280499 65.1792133,24.5808887 64.0801253,24.0337275 L64.0801253,24.0337275 L62.6146747,27.3166948 L59.3174107,25.8575982 L60.7828613,22.5746309 C57.4855973,21.2979214 53.8219706,20.5683731 50.158344,20.385986 L50.158344,20.385986 Z" id="形狀"></path>
            </g>
            <circle id="橢圓形" stroke-opacity="0.4901934" stroke="#CC0202" stroke-width="3" fill="#FFF572" cx="50.2857143" cy="66.6122449" r="7.83673469"></circle>
            <circle id="橢圓形copy" stroke-opacity="0.4901934" stroke="#CC0202" stroke-width="3" fill="#FFF572" cx="62.0408163" cy="45.0612245" r="5.87755102"></circle>
            <circle id="橢圓形copycopy" stroke-opacity="0.4901934" stroke="#CC0202" stroke-width="3" fill="#FFF572" cx="77.0612245" cy="58.7755102" r="5.87755102"></circle>
            <circle id="橢圓形copycopycopy" stroke-opacity="0.4901934" stroke="#CC0202" stroke-width="3" fill="#FFF572" cx="71.1836735" cy="80.3265306" r="7.37755102"></circle>
        </g>
    </g>
</svg>