<?xml version="1.0" encoding="UTF-8"?>
<svg width="786px" height="720px" viewBox="0 0 786 720" version="1.1" xmlns="http://www.w3.org/2000/svg" xmlns:xlink="http://www.w3.org/1999/xlink">
    <!-- Generator: Sketch 58 (84663) - https://sketch.com -->
    <title>畫板copy</title>
    <desc>Created with Sketch.</desc>
    <defs>
        <path d="M468.098805,3.50892425 C470.731019,2.63169319 475.118043,0 478.627662,0 L481.259876,0 C484.769494,0 488.279113,2.63169319 490.033922,5.26338638 L500.562778,19.2990834 C501.440183,21.9307766 507.582016,24.5624698 511.091634,24.5624698 L541.800798,35.0892425 C545.310416,35.0892425 547.94263,37.7209357 550.574844,40.3526289 L560.226296,57.0200191 C563.735914,57.8972502 561.1037,62.2834055 560.226296,64.9150987 L540.923393,85.0914132 C539.168584,86.8458753 537.413774,92.1092617 534.78156,94.7409549 L531.271942,112.285576 L531.271942,124.566811 L534.78156,132.461891 C537.413774,135.970815 538.291179,141.234201 538.291179,144.743125 L539.168584,150.006512 L539.164522,151.58634 C539.144211,154.611975 539.02235,159.363643 538.291179,162.287747 L528.639728,184.218523 C527.762323,186.850217 524.252704,191.236372 523.3753,194.745296 L503.194992,245.624698 C500.562778,249.133622 500.562778,255.274239 500.562778,258.783164 C500.562778,262.292088 501.440183,266.678243 500.562778,269.309937 L499.709831,274.512465 C493.923018,309.482733 481.128265,381.069174 478.627662,387.73613 L462.834377,433.352145 C461.079568,435.983839 458.447354,442.124456 458.447354,445.63338 C455.81514,455.282922 457.569949,457.914615 452.305521,464.932464 L422.473763,514.934634 C421.596358,517.566327 417.209335,521.952483 415.454525,522.829714 L392.642004,548.269415 C391.764599,550.901108 388.254981,554.410032 387.377576,557.918956 L366.319864,611.430051 C365.517665,614.638211 365.448905,620.046251 365.443012,622.290653 L365.442459,678.976843 C365.442459,683.362998 363.68765,686.871923 362.810245,690.380847 L359.300626,702.662082 C357.545817,705.293775 354.036198,707.048237 351.403984,705.293775 L340.875128,700.030389 C339.120319,698.275927 333.855891,696.521464 331.223677,693.01254 L326.836654,690.380847 C325.959249,686.871923 324.20444,683.362998 324.20444,678.976843 L326.836654,664.063915 L326.831832,662.133935 C326.80933,659.034255 326.681818,655.549614 325.959249,652.659911 L313.675584,626.342979 C312.798179,622.834055 310.165965,619.325131 305.778942,615.816207 L279.456802,592.130968 C275.947183,588.622044 271.56016,587.744813 268.050541,587.744813 L267.173136,587.744813 C264.540922,587.744813 260.153899,585.113119 258.39909,581.604195 L239.096187,554.410032 C237.341377,551.778339 236.463973,547.392184 234.709163,543.883259 L229.444735,524.584176 C229.444735,521.952483 227.689926,515.811865 227.689926,513.180172 L227.689926,493.003858 L227.684055,492.514505 C227.602613,489.174215 226.649283,485.945208 223.302903,485.108778 L208.387023,472.827543 C204.877405,471.950312 204,465.809695 204,463.178002 L204.877405,453.52846 C204.877405,450.019536 207.509619,445.63338 207.509619,442.124456 L210.141833,428.088759 C210.141833,425.457066 213.651451,421.07091 213.651451,418.439217 L216.283665,416.684755 C218.915879,413.175831 220.670689,409.666907 218.915879,406.157982 L216.283665,346.50627 L216.285834,345.722737 C216.3068,343.067593 216.530435,339.2417 218.915879,336.856728 L320.694821,157.901591 C322.44963,154.392667 325.959249,150.006512 328.591463,147.374819 L351.403984,121.057887 C354.036198,119.303425 357.545817,114.917269 359.300626,112.285576 L384.745362,55.265557 C385.622767,52.6338638 390.887195,49.1249396 392.642004,49.1249396 L418.964144,39.4753979 C422.473763,37.7209357 426.860786,35.9664736 432.125214,35.0892425 L447.918498,32.4575494 C451.428117,30.7030872 454.937735,27.194163 454.937735,24.5624698 C454.937735,21.9307766 455.81514,16.6673902 458.447354,13.158466 L468.098805,3.50892425 Z" id="path-1"></path>
        <filter x="-2.2%" y="-1.1%" width="104.5%" height="102.6%" filterUnits="objectBoundingBox" id="filter-2">
            <feMorphology radius="7" operator="dilate" in="SourceAlpha" result="shadowSpreadOuter1"></feMorphology>
            <feOffset dx="0" dy="2" in="shadowSpreadOuter1" result="shadowOffsetOuter1"></feOffset>
            <feComposite in="shadowOffsetOuter1" in2="SourceAlpha" operator="out" result="shadowOffsetOuter1"></feComposite>
            <feColorMatrix values="0 0 0 0 0.798035553   0 0 0 0 0.798035553   0 0 0 0 0.798035553  0 0 0 0.5 0" type="matrix" in="shadowOffsetOuter1"></feColorMatrix>
        </filter>
        <path d="M28.6535858,80.4170004 L25.9288583,98.2596796 L10.9868044,98.2596796 L13.7115318,80.4170004 L1.66999426,80.4170004 L3.69156627,66.9690699 L15.557315,66.9690699 L17.8425703,51.8511348 L5.97682157,51.8511348 L7.8226047,38.3153093 L19.6883534,38.3153093 L22.1493976,21 L37.2672404,21 L34.8061962,38.3153093 L49.924039,38.3153093 L52.4729776,21 L67.1513483,21 L64.6903041,38.3153093 L76.7318417,38.3153093 L74.973953,51.8511348 L62.8445209,51.8511348 L60.5592656,66.9690699 L72.6008032,66.9690699 L70.5792312,80.4170004 L58.7134825,80.4170004 L55.988755,98.2596796 L41.0467011,98.2596796 L43.7714286,80.4170004 L28.6535858,80.4170004 Z M30.6751578,66.9690699 L45.7930006,66.9690699 L48.0782559,51.8511348 L32.9604131,51.8511348 L30.6751578,66.9690699 Z M46.5840505,327.271003 L46.5840505,215.029125 L0,215.029125 L0,197.186446 L120.327481,197.186446 L120.327481,215.029125 L73.7434309,215.029125 L73.7434309,327.271003 L46.5840505,327.271003 Z M185.808835,316.899397 C177.136541,325.278759 167.849122,329.468378 157.946299,329.468378 C149.508392,329.468378 142.652694,326.890151 137.379002,321.73362 C132.105309,316.577089 129.468503,309.897138 129.468503,301.693567 C129.468503,291.028924 133.73134,282.810826 142.257143,277.039027 C150.782946,271.267229 162.985501,268.381373 178.865175,268.381373 L185.808835,268.381373 L185.808835,259.591876 C185.808835,249.571799 180.095754,244.561836 168.669421,244.561836 C158.532212,244.561836 148.277964,247.433043 137.906368,253.175543 L137.906368,235.244969 C149.684281,230.791601 161.344827,228.564951 172.888353,228.564951 C198.143481,228.564951 210.770855,238.614175 210.770855,258.712926 L210.770855,301.429882 C210.770855,308.988887 213.202577,312.768333 218.066093,312.768333 C218.945042,312.768333 220.087658,312.651141 221.493976,312.416753 L222.109237,327.007318 C216.601158,328.648033 211.737715,329.468378 207.518761,329.468378 C196.854183,329.468378 189.998485,325.278759 186.951463,316.899397 L185.808835,316.899397 Z M185.808835,302.924096 L185.808835,283.323518 L179.656225,283.323518 C162.839006,283.323518 154.430522,288.597163 154.430522,299.144613 C154.430522,302.719026 155.646383,305.722074 158.078141,308.153847 C160.509899,310.58562 163.512929,311.801488 167.087321,311.801488 C173.181365,311.801488 179.421808,308.842387 185.808835,302.924096 Z M244.346529,327.271003 L244.346529,230.762325 L270.363282,230.762325 L270.363282,327.271003 L244.346529,327.271003 Z M244.346529,214.501755 L244.346529,192.791698 L270.363282,192.791698 L270.363282,214.501755 L244.346529,214.501755 Z M319.935743,327.271003 L293.12794,230.762325 L317.29891,230.762325 L336.284108,298.353558 L356.499828,230.762325 L379.000803,230.762325 L397.194951,298.705138 L417.674355,230.762325 L435.780608,230.762325 L407.127022,327.271003 L382.165003,327.271003 L364.586116,261.08609 L344.897762,327.271003 L319.935743,327.271003 Z M505.480895,316.899397 C496.808601,325.278759 487.521182,329.468378 477.618359,329.468378 C469.180451,329.468378 462.324754,326.890151 457.051061,321.73362 C451.777369,316.577089 449.140562,309.897138 449.140562,301.693567 C449.140562,291.028924 453.4034,282.810826 461.929203,277.039027 C470.455005,271.267229 482.657561,268.381373 498.537235,268.381373 L505.480895,268.381373 L505.480895,259.591876 C505.480895,249.571799 499.767814,244.561836 488.34148,244.561836 C478.204271,244.561836 467.950023,247.433043 457.578428,253.175543 L457.578428,235.244969 C469.356341,230.791601 481.016886,228.564951 492.560413,228.564951 C517.81554,228.564951 530.442915,238.614175 530.442915,258.712926 L530.442915,301.429882 C530.442915,308.988887 532.874636,312.768333 537.738153,312.768333 C538.617101,312.768333 539.759718,312.651141 541.166036,312.416753 L541.781297,327.007318 C536.273218,328.648033 531.409774,329.468378 527.19082,329.468378 C516.526242,329.468378 509.670545,325.278759 506.623523,316.899397 L505.480895,316.899397 Z M505.480895,302.924096 L505.480895,283.323518 L499.328285,283.323518 C482.511065,283.323518 474.102582,288.597163 474.102582,299.144613 C474.102582,302.719026 475.318443,305.722074 477.750201,308.153847 C480.181959,310.58562 483.184989,311.801488 486.75938,311.801488 C492.853425,311.801488 499.093867,308.842387 505.480895,302.924096 Z M564.018589,327.271003 L564.018589,230.762325 L590.035341,230.762325 L590.035341,248.956584 C598.531846,235.362094 609.489243,228.564951 622.90786,228.564951 C631.521558,228.564951 638.318659,231.289668 643.299369,236.739183 C648.280078,242.188699 650.770396,249.630398 650.770396,259.064506 L650.770396,327.271003 L624.753643,327.271003 L624.753643,265.480839 C624.753643,254.523211 621.120709,249.044479 613.854733,249.044479 C605.592615,249.044479 597.652897,254.874787 590.035341,266.535578 L590.035341,327.271003 L564.018589,327.271003 Z M119.009065,534.095683 C106.4108,539.720989 91.3810014,542.5336 73.9192197,542.5336 C52.5900636,542.5336 35.9781815,536.527504 24.0830752,524.515131 C12.1879688,512.502759 6.24050488,495.744285 6.24050488,474.239208 C6.24050488,452.323952 12.2319156,435.462935 24.2149168,423.655652 C36.197918,411.848368 53.2932146,405.944815 75.5013196,405.944815 C89.6816926,405.944815 103.773959,407.614803 117.778543,410.954829 L117.778543,432.137517 C101.898869,426.570807 88.597644,423.787494 77.8744693,423.787494 C64.1628689,423.787494 53.5863443,428.138252 46.1445783,436.839898 C38.7028123,445.541543 34.9819851,457.890663 34.9819851,473.887628 C34.9819851,489.591608 38.9811419,501.838185 46.9795754,510.627726 C54.978009,519.417267 66.0965438,523.811972 80.3355135,523.811972 C93.1095686,523.811972 106.000623,520.589188 119.009065,514.143525 L119.009065,534.095683 Z M189.851979,528.90988 C181.179685,537.289242 171.892266,541.478861 161.989443,541.478861 C153.551536,541.478861 146.695838,538.900634 141.422146,533.744103 C136.148453,528.587572 133.511647,521.907621 133.511647,513.70405 C133.511647,503.039407 137.774484,494.821309 146.300287,489.04951 C154.82609,483.277712 167.028645,480.391856 182.908319,480.391856 L189.851979,480.391856 L189.851979,471.602359 C189.851979,461.582282 184.138898,456.572319 172.712565,456.572319 C162.575356,456.572319 152.321108,459.443526 141.949512,465.186026 L141.949512,447.255452 C153.727425,442.802084 165.387971,440.575434 176.931497,440.575434 C202.186625,440.575434 214.813999,450.624658 214.813999,470.723409 L214.813999,513.440365 C214.813999,520.99937 217.245721,524.778816 222.109237,524.778816 C222.988186,524.778816 224.130802,524.661624 225.53712,524.427236 L226.152381,539.017802 C220.644302,540.658516 215.780859,541.478861 211.561905,541.478861 C200.897327,541.478861 194.041629,537.289242 190.994607,528.90988 L189.851979,528.90988 Z M189.851979,514.934579 L189.851979,495.334001 L183.699369,495.334001 C166.88215,495.334001 158.473666,500.607646 158.473666,511.155096 C158.473666,514.729509 159.689527,517.732557 162.121285,520.16433 C164.553043,522.596103 167.556073,523.811972 171.130465,523.811972 C177.224509,523.811972 183.464952,520.85287 189.851979,514.934579 Z M248.389673,539.281486 L248.389673,442.772808 L274.406426,442.772808 L274.406426,460.967067 C282.90293,447.372577 293.860327,440.575434 307.278944,440.575434 C315.892642,440.575434 322.689744,443.300151 327.670453,448.749666 C332.651163,454.199182 335.14148,461.640881 335.14148,471.074989 L335.14148,539.281486 L309.124727,539.281486 L309.124727,477.491322 C309.124727,466.533694 305.491794,461.054962 298.225818,461.054962 C289.963699,461.054962 282.023981,466.88527 274.406426,478.546061 L274.406426,539.281486 L248.389673,539.281486 Z M366.607688,539.281486 L366.607688,409.196929 L393.679174,409.196929 L393.679174,462.021807 L447.470568,462.021807 L447.470568,409.196929 L474.542054,409.196929 L474.542054,539.281486 L447.470568,539.281486 L447.470568,479.952381 L393.679174,479.952381 L393.679174,539.281486 L366.607688,539.281486 Z M585.64062,536.029372 C573.276741,539.662383 561.5576,541.478861 550.482846,541.478861 C534.368785,541.478861 521.653518,536.908368 512.336661,527.767245 C503.019804,518.626123 498.361446,506.145161 498.361446,490.323988 C498.361446,475.381768 502.624283,463.354926 511.150086,454.243102 C519.675889,445.131278 530.940913,440.575434 544.945496,440.575434 C559.067273,440.575434 569.380117,445.028735 575.884337,453.93547 C582.388558,462.842204 585.64062,476.934557 585.64062,496.212951 L525.784509,496.212951 C527.542407,514.61239 537.650166,523.811972 556.10809,523.811972 C564.83898,523.811972 574.683059,521.790407 585.64062,517.747219 L585.64062,536.029372 Z M525.432932,481.53449 L560.063339,481.53449 L560.056713,480.536671 C559.844685,464.736149 554.543979,456.836004 544.154446,456.836004 C533.372675,456.836004 527.132233,465.06875 525.432932,481.53449 Z M612.536317,539.281486 L612.536317,400.495327 L638.553069,400.495327 L638.553069,539.281486 L612.536317,539.281486 Z M728.644865,440.575434 C740.246989,440.575434 749.373269,444.823648 756.023982,453.320205 C762.674694,461.816761 766,473.506675 766,488.390298 C766,504.563054 762.249875,517.454187 754.749512,527.064085 C747.24915,536.673984 737.199986,541.478861 724.601721,541.478861 C714.464512,541.478861 705.294285,537.494329 697.090763,529.525145 L697.090763,574 L671.07401,574 L671.07401,442.772808 L697.090763,442.772808 L697.090763,460.967067 C703.770774,447.372577 714.288702,440.575434 728.644865,440.575434 Z M719.240161,460.967067 C711.564008,460.967067 704.18095,465.918434 697.090763,475.821317 L697.090763,475.821317 L697.090763,514.05563 C703.419194,521.087263 710.1577,524.603026 717.306483,524.603026 C723.693511,524.603026 728.791337,521.512084 732.600115,515.330107 C736.408893,509.14813 738.313253,500.900734 738.313253,490.587672 C738.313253,470.840504 731.955619,460.967067 719.240161,460.967067 Z" id="path-3"></path>
        <filter x="-1.7%" y="-2.4%" width="103.4%" height="104.7%" filterUnits="objectBoundingBox" id="filter-4">
            <feMorphology radius="7" operator="dilate" in="SourceAlpha" result="shadowSpreadOuter1"></feMorphology>
            <feOffset dx="0" dy="0" in="shadowSpreadOuter1" result="shadowOffsetOuter1"></feOffset>
            <feComposite in="shadowOffsetOuter1" in2="SourceAlpha" operator="out" result="shadowOffsetOuter1"></feComposite>
            <feColorMatrix values="0 0 0 0 1   0 0 0 0 1   0 0 0 0 1  0 0 0 0.832058566 0" type="matrix" in="shadowOffsetOuter1"></feColorMatrix>
        </filter>
    </defs>
    <g id="畫板copy" stroke="none" stroke-width="1" fill="none" fill-rule="evenodd">
        <g id="群組" transform="translate(10.000000, 7.000000)" fill-rule="nonzero">
            <g id="ꀂ">
                <use fill="black" fill-opacity="1" filter="url(#filter-2)" xlink:href="#path-1"></use>
                <use stroke="#F18A68" stroke-width="14" fill-opacity="0" fill="#FFFFFF" xlink:href="#path-1"></use>
            </g>
            <g id="#TaiwanCanHelp">
                <use fill="black" fill-opacity="1" filter="url(#filter-4)" xlink:href="#path-3"></use>
                <path stroke="#AB4B22" stroke-width="4" d="M30.3713544,82.4170004 L27.6466269,100.25968 L8.65820203,100.25968 L11.3829295,82.4170004 L-0.653129125,82.4170004 L1.9697464,64.9690699 L13.8369179,64.9690699 L15.5175257,53.8511348 L3.6855868,53.8511348 L6.07682115,36.3153093 L17.9525154,36.3153093 L20.4135596,19 L39.5716029,19 L37.1105587,36.3153093 L48.1968996,36.3153093 L50.7458382,19 L69.4557107,19 L66.9946665,36.3153093 L79.0083759,36.3153093 L76.7310098,53.8511348 L64.5649181,53.8511348 L62.8843102,64.9690699 L74.9239266,64.9690699 L72.3010511,82.4170004 L60.4312511,82.4170004 L57.7065236,100.25968 L38.7180988,100.25968 L41.4428262,82.4170004 L30.3713544,82.4170004 Z M33.0002024,64.9690699 L44.0726035,64.9690699 L45.7532113,53.8511348 L34.6808102,53.8511348 L33.0002024,64.9690699 Z M44.5840505,217.029125 L-2,217.029125 L-2,195.186446 L122.327481,195.186446 L122.327481,217.029125 L75.7434309,217.029125 L75.7434309,329.271003 L44.5840505,329.271003 L44.5840505,217.029125 Z M185.891399,319.565778 C177.23029,327.473476 167.896149,331.468378 157.946299,331.468378 C149.003972,331.468378 141.643097,328.700168 135.980762,323.163629 C130.310127,317.618974 127.468503,310.420149 127.468503,301.693567 C127.468503,290.37212 132.054667,281.530696 141.135945,275.382852 C150.0371,269.356948 162.619024,266.381373 178.865175,266.381373 L183.808835,266.381373 L183.808835,259.591876 C183.808835,250.73907 179.045352,246.561836 168.669421,246.561836 C158.886023,246.561836 148.961355,249.34076 138.87514,254.925252 L135.906368,256.568988 L135.906368,233.862998 L137.19902,233.374231 C149.198169,228.837212 161.097569,226.564951 172.888353,226.564951 C199.160599,226.564951 212.770855,237.39638 212.770855,258.712926 L212.770855,301.429882 C212.770855,308.020377 214.538909,310.768333 218.066093,310.768333 C218.819226,310.768333 219.858595,310.661731 221.165176,310.443966 L223.396879,310.072013 L224.173089,328.479394 L222.680193,328.924089 C216.998638,330.616477 211.948117,331.468378 207.518761,331.468378 C196.911001,331.468378 189.582184,327.472067 185.891399,319.565778 Z M183.808835,302.040887 L183.808835,285.323518 L179.656225,285.323518 C163.804202,285.323518 156.430522,289.948154 156.430522,299.144613 C156.430522,302.194233 157.439816,304.687082 159.492359,306.739638 C161.5449,308.792191 164.037727,309.801488 167.087321,309.801488 C172.424641,309.801488 177.994861,307.249726 183.808835,302.040884 Z M242.346529,329.271003 L242.346529,228.762325 L272.363282,228.762325 L272.363282,329.271003 L242.346529,329.271003 Z M242.346529,216.501755 L242.346529,190.791698 L272.363282,190.791698 L272.363282,216.501755 L242.346529,216.501755 Z M336.344407,291.172269 L355.010466,228.762325 L380.535699,228.762325 L397.308635,291.397875 L416.188317,228.762325 L438.460701,228.762325 L408.619508,329.271003 L380.626865,329.271003 L364.477131,268.466882 L346.389428,329.271003 L318.415569,329.271003 L290.496662,228.762325 L318.814542,228.762325 L336.344407,291.172269 Z M505.563459,319.565778 C496.90235,327.473476 487.568209,331.468378 477.618359,331.468378 C468.676032,331.468378 461.315157,328.700168 455.652822,323.163629 C449.982186,317.618974 447.140562,310.420149 447.140562,301.693567 C447.140562,290.37212 451.726727,281.530696 460.808005,275.382852 C469.709159,269.356948 482.291084,266.381373 498.537235,266.381373 L503.480895,266.381373 L503.480895,259.591876 C503.480895,250.73907 498.717412,246.561836 488.34148,246.561836 C478.558083,246.561836 468.633415,249.34076 458.547199,254.925252 L455.578428,256.568988 L455.578428,233.862998 L456.87108,233.374231 C468.870228,228.837212 480.769629,226.564951 492.560413,226.564951 C518.832659,226.564951 532.442915,237.39638 532.442915,258.712926 L532.442915,301.429882 C532.442915,308.020377 534.210969,310.768333 537.738153,310.768333 C538.491286,310.768333 539.530654,310.661731 540.837236,310.443966 L543.068939,310.072013 L543.845149,328.479394 L542.352253,328.924089 C536.670698,330.616477 531.620177,331.468378 527.19082,331.468378 C516.583061,331.468378 509.254244,327.472067 505.563459,319.565778 Z M503.480895,302.040887 L503.480895,285.323518 L499.328285,285.323518 C483.476262,285.323518 476.102582,289.948154 476.102582,299.144613 C476.102582,302.194233 477.111875,304.687082 479.164419,306.739638 C481.21696,308.792191 483.709787,309.801488 486.75938,309.801488 C492.0967,309.801488 497.666921,307.249726 503.480895,302.040884 Z M592.035341,242.591801 C600.326992,231.952884 610.652284,226.564951 622.90786,226.564951 C632.060639,226.564951 639.398241,229.506335 644.775656,235.389896 C650.118539,241.235674 652.770396,249.160095 652.770396,259.064506 L652.770396,329.271003 L622.753643,329.271003 L622.753643,265.480839 C622.753643,255.496369 619.801606,251.044479 613.854733,251.044479 C606.504297,251.044479 599.215573,256.316355 592.035341,267.134871 L592.035341,329.271003 L562.018589,329.271003 L562.018589,228.762325 L592.035341,228.762325 L592.035341,242.591801 Z M119.824497,535.921901 C106.952469,541.669446 91.6472373,544.5336 73.9192197,544.5336 C52.0864114,544.5336 34.9596694,538.341354 22.661942,525.922391 C10.3684097,513.507665 4.24050488,496.240754 4.24050488,474.239208 C4.24050488,451.822011 10.4151728,434.445272 22.8111871,422.231032 C35.2008415,410.023058 52.8019982,403.944815 75.5013196,403.944815 C89.8385561,403.944815 104.086519,405.633254 118.24252,409.009392 L119.778543,409.375726 L119.778543,434.957957 L117.116908,434.024906 C101.432644,428.526699 88.3422096,425.787494 77.8744693,425.787494 C64.7202523,425.787494 54.7050295,429.907355 47.6645395,438.139789 C40.5647947,446.44151 36.9819851,458.332561 36.9819851,473.887628 C36.9819851,489.125778 40.8242941,500.892041 48.4587902,509.281649 C56.0571075,517.631499 66.6336388,521.811972 80.3355135,521.811972 C92.7906601,521.811972 105.380132,518.664584 118.121097,512.351455 L121.009065,510.920471 L121.009065,535.392974 L119.824497,535.921901 Z M189.934543,531.576261 C181.273434,539.483959 171.939293,543.478861 161.989443,543.478861 C153.047116,543.478861 145.686241,540.710652 140.023906,535.174112 C134.353271,529.629457 131.511647,522.430632 131.511647,513.70405 C131.511647,502.382603 136.097811,493.541179 145.179089,487.393335 C154.080244,481.367431 166.662168,478.391856 182.908319,478.391856 L187.851979,478.391856 L187.851979,471.602359 C187.851979,462.749553 183.088496,458.572319 172.712565,458.572319 C162.929167,458.572319 153.004499,461.351243 142.918284,466.935735 L139.949512,468.579471 L139.949512,445.873481 L141.242164,445.384714 C153.241313,440.847695 165.140713,438.575434 176.931497,438.575434 C203.203743,438.575434 216.813999,449.406863 216.813999,470.723409 L216.813999,513.440365 C216.813999,520.03086 218.582053,522.778816 222.109237,522.778816 C222.86237,522.778816 223.901739,522.672214 225.20832,522.454449 L227.440023,522.082496 L228.216233,540.489877 L226.723337,540.934572 C221.041782,542.62696 215.991261,543.478861 211.561905,543.478861 C200.954145,543.478861 193.625328,539.48255 189.934543,531.576261 Z M187.851979,514.05137 L187.851979,497.334001 L183.699369,497.334001 C167.847346,497.334001 160.473666,501.958637 160.473666,511.155096 C160.473666,514.204716 161.48296,516.697565 163.535503,518.750121 C165.588044,520.802674 168.080871,521.811972 171.130465,521.811972 C176.467785,521.811972 182.038005,519.26021 187.851979,514.051367 Z M276.406426,454.602284 C284.698076,443.963367 295.023368,438.575434 307.278944,438.575434 C316.431723,438.575434 323.769325,441.516818 329.146741,447.400379 C334.489623,453.246157 337.14148,461.170578 337.14148,471.074989 L337.14148,541.281486 L307.124727,541.281486 L307.124727,477.491322 C307.124727,467.506852 304.17269,463.054962 298.225818,463.054962 C290.875382,463.054962 283.586657,468.326838 276.406426,479.145354 L276.406426,541.281486 L246.389673,541.281486 L246.389673,440.772808 L276.406426,440.772808 L276.406426,454.602284 Z M395.679174,460.021807 L445.470568,460.021807 L445.470568,407.196929 L476.542054,407.196929 L476.542054,541.281486 L445.470568,541.281486 L445.470568,481.952381 L395.679174,481.952381 L395.679174,541.281486 L364.607688,541.281486 L364.607688,407.196929 L395.679174,407.196929 L395.679174,460.021807 Z M528.031511,498.212951 C530.245128,514.104231 539.430458,521.811972 556.10809,521.811972 C564.583028,521.811972 574.198755,519.837301 584.948275,515.870877 L587.64062,514.877439 L587.64062,537.526246 L586.204463,537.948247 C573.663925,541.633167 561.756298,543.478861 550.482846,543.478861 C533.872122,543.478861 520.650839,538.726481 510.935975,529.194858 C501.213247,519.655519 496.361446,506.656275 496.361446,490.323988 C496.361446,474.897166 500.798412,462.379051 509.68969,452.876631 C518.606702,443.346707 530.404409,438.575434 544.945496,438.575434 C559.665926,438.575434 570.588331,443.291956 577.499512,452.755974 C584.298316,462.066104 587.64062,476.549509 587.64062,496.212951 L587.64062,498.212951 L528.031511,498.212951 Z M527.683833,479.53449 L558.035635,479.53449 C557.638878,465.407595 553.021983,458.836004 544.154446,458.836004 C535.056157,458.836004 529.577338,465.482157 527.683833,479.53449 Z M610.536317,541.281486 L610.536317,398.495327 L640.553069,398.495327 L640.553069,541.281486 L610.536317,541.281486 Z M699.090763,533.993638 L699.090763,576 L669.07401,576 L669.07401,440.772808 L699.090763,440.772808 L699.090763,453.621291 C706.095669,443.632836 715.999556,438.575434 728.644865,438.575434 C740.84946,438.575434 750.560773,443.095976 757.598881,452.087446 C764.552185,460.970577 768,473.091163 768,488.390298 C768,504.980519 764.124365,518.303096 756.326148,528.294622 C748.443075,538.39487 737.81016,543.478861 724.601721,543.478861 C715.312555,543.478861 706.790117,540.300159 699.090763,533.993638 Z M699.090763,476.468554 L699.090763,513.279158 C704.90811,519.539094 710.962128,522.603026 717.306483,522.603026 C722.970632,522.603026 727.439469,519.893456 730.89735,514.281016 C734.49128,508.447755 736.313253,500.557164 736.313253,490.587672 C736.313253,471.809125 730.619737,462.967067 719.240161,462.967067 C712.439929,462.967067 705.719861,467.389642 699.090763,476.468554 Z" fill="#A63F24" fill-rule="evenodd"></path>
            </g>
        </g>
    </g>
</svg>