<?xml version="1.0" encoding="UTF-8"?>
<svg width="650px" height="490px" viewBox="0 0 650 490" version="1.1" xmlns="http://www.w3.org/2000/svg" xmlns:xlink="http://www.w3.org/1999/xlink">
    <!-- Generator: Sketch 58 (84663) - https://sketch.com -->
    <title>ship-flag</title>
    <desc>Created with Sketch.</desc>
    <defs>
        <filter x="-2.2%" y="-3.5%" width="104.4%" height="107.0%" filterUnits="objectBoundingBox" id="filter-1">
            <feOffset dx="0" dy="3" in="SourceAlpha" result="shadowOffsetOuter1"></feOffset>
            <feGaussianBlur stdDeviation="2" in="shadowOffsetOuter1" result="shadowBlurOuter1"></feGaussianBlur>
            <feColorMatrix values="0 0 0 0 0   0 0 0 0 0   0 0 0 0 0  0 0 0 0.5 0" type="matrix" in="shadowBlurOuter1" result="shadowMatrixOuter1"></feColorMatrix>
            <feMerge>
                <feMergeNode in="shadowMatrixOuter1"></feMergeNode>
                <feMergeNode in="SourceGraphic"></feMergeNode>
            </feMerge>
        </filter>
    </defs>
    <g id="Welcome" stroke="none" stroke-width="1" fill="none" fill-rule="evenodd">
        <g id="borad" transform="translate(-942.000000, -44.000000)" fill-rule="nonzero">
            <g id="ship-flag" transform="translate(947.000000, 49.000000)">
                <path d="M-2.5,-2.5 L642.5,-2.5 L642.5,482.5 L-2.5,482.5 L-2.5,-2.5 Z" id="rect" stroke="#000000" stroke-width="5" fill="#FFFFFF" stroke-linejoin="bevel"></path>
                <g id="ship" filter="url(#filter-1)" transform="translate(11.000000, 48.000000)" fill="#000000">
                    <path d="M617.317127,188.445378 C614.585635,185.031513 610.488398,182.30042 606.39116,182.30042 L478.693923,182.30042 L392.651934,83.2983193 C390.603315,81.25 387.871823,79.8844538 385.140331,79.8844538 L282.709392,79.8844538 C282.709392,79.2016807 282.709392,78.5189076 282.026519,77.8361345 L243.785635,5.46218487 C241.737017,2.04831933 238.322652,0 234.908287,0 L183.692818,0 C178.229834,0 173.449724,4.77941176 173.449724,10.2415966 L173.449724,79.2016807 L132.477348,79.2016807 C129.062983,79.2016807 125.648619,81.25 123.6,83.9810924 L65.5558011,181.617647 L35.5093923,181.617647 C30.0464088,181.617647 25.2662983,185.714286 25.2662983,191.859244 C25.2662983,193.907563 24.5834254,233.508403 40.9723757,269.012605 C32.7779006,265.598739 22.5348066,263.55042 10.2430939,263.55042 C4.7801105,263.55042 0,268.329832 0,273.792017 C0,279.254202 4.7801105,284.033613 10.2430939,284.033613 C32.7779006,284.033613 43.7038674,292.226891 56.678453,302.468487 C70.3359116,312.710084 85.359116,325 115.405525,325 C116.771271,325 118.137017,325 119.502762,325 C121.551381,325 122.917127,325 124.965746,325 C126.331492,325 127.697238,324.317227 129.062983,323.634454 C150.232044,320.903361 162.523757,310.661765 174.132597,302.468487 C186.424309,292.909664 197.350276,284.033613 220.567956,284.033613 C243.102762,284.033613 254.028729,292.226891 267.003315,302.468487 C280.660773,312.710084 295.683978,325 325.730387,325 C355.776796,325 370.8,312.710084 384.457459,302.468487 C396.749171,292.909664 407.675138,284.033613 430.892818,284.033613 C453.427624,284.033613 464.353591,292.226891 477.328177,302.468487 C490.985635,312.710084 506.00884,325 536.055249,325 C541.518232,325 546.298343,320.220588 546.298343,314.758403 C546.298343,309.296218 541.518232,304.516807 536.055249,304.516807 C528.543646,304.516807 522.39779,303.834034 516.934807,301.785714 L615.268508,199.369748 C618,196.638655 618.682873,191.859244 617.317127,188.445378 Z M243.102762,49.1596639 L259.491713,80.5672269 L193.935912,80.5672269 L193.935912,49.1596639 L243.102762,49.1596639 Z M193.253039,21.1659664 L228.079558,21.1659664 L232.176796,28.6764706 L193.253039,28.6764706 L193.253039,21.1659664 Z M138.623204,100.367647 L380.360221,100.367647 L412.455249,137.237395 L116.088398,137.237395 L138.623204,100.367647 Z M104.479558,157.720588 L430.209945,157.720588 L452.061878,182.30042 L89.4563536,182.30042 L104.479558,157.720588 Z M496.448619,292.909664 C493.717127,290.861345 490.985635,288.813025 488.254144,286.764706 C474.596685,276.523109 459.573481,264.233193 429.527072,264.233193 C399.480663,264.233193 384.457459,276.523109 370.8,286.764706 C358.508287,296.323529 347.58232,305.19958 324.364641,305.19958 C301.829834,305.19958 290.903867,297.006303 277.929282,286.764706 C264.271823,276.523109 249.248619,264.233193 219.20221,264.233193 C189.838674,264.233193 174.132597,276.523109 160.475138,286.764706 C148.866298,295.640756 138.623204,303.834034 118.81989,304.516807 C101.065193,303.834034 86.7248619,297.006303 75.1160221,285.39916 C51.8983425,261.502101 46.4353591,221.218487 45.0696133,202.783613 L581.807735,202.783613 L496.448619,292.909664 Z" id="shrap"></path>
                    <path d="M535.7625,363.666667 C513.24,363.666667 502.32,355.533333 489.3525,345.366667 C475.7025,335.2 460.6875,323 430.6575,323 C400.6275,323 385.6125,335.2 371.9625,345.366667 C359.6775,354.855556 348.7575,363.666667 325.5525,363.666667 C303.03,363.666667 292.11,355.533333 279.1425,345.366667 C265.4925,335.2 250.4775,323 220.4475,323 C191.1,323 175.4025,335.2 161.7525,345.366667 C149.4675,354.855556 138.5475,363.666667 115.3425,363.666667 C92.82,363.666667 81.9,355.533333 68.9325,345.366667 C55.2825,335.2 40.2675,323 10.2375,323 C4.7775,323 0,327.744444 0,333.166667 C0,338.588889 4.7775,343.333333 10.2375,343.333333 C32.76,343.333333 43.68,351.466667 56.6475,361.633333 C70.2975,372.477778 85.995,384 115.3425,384 C144.69,384 160.3875,371.8 174.0375,361.633333 C186.3225,352.144444 197.2425,343.333333 220.4475,343.333333 C242.97,343.333333 253.89,351.466667 266.8575,361.633333 C280.5075,371.8 295.5225,384 325.5525,384 C355.5825,384 370.5975,371.8 384.2475,361.633333 C396.5325,352.144444 407.4525,343.333333 430.6575,343.333333 C453.18,343.333333 464.1,351.466667 477.0675,361.633333 C490.7175,371.8 505.7325,384 535.7625,384 C541.2225,384 546,379.255556 546,373.833333 C546,368.411111 541.2225,363.666667 535.7625,363.666667 Z" id="path"></path>
                </g>
            </g>
        </g>
    </g>
</svg>